<svg xmlns="http://www.w3.org/2000/svg" width="724" height="500" viewBox="0 0 724 500">
  <!-- background -->
  <rect width="100%" height="100%" fill="white"/>
  <!-- outer border -->
  <rect x="0.5" y="0.5" width="723" height="499" fill="none" stroke="#e5e7eb" stroke-width="1" rx="2"/>
  <!-- title -->
  <text x="362" y="18" font-family="ui-sans-serif, sans-serif" font-size="14" font-weight="700" text-anchor="middle" fill="#111827">Criterion × Accessibility-Tier Matrix</text>
  <!-- header band -->
  <rect x="0" y="28" width="724" height="56" fill="#f3f4f6" />
  <!-- tier headers -->
  <text x="400" y="48" font-family="ui-sans-serif, sans-serif" font-size="13" font-weight="700" text-anchor="middle" fill="#111827">Minimum</text><text x="400" y="64" font-family="ui-sans-serif, sans-serif" font-size="10" text-anchor="middle" fill="#6b7280">(Tier 1 · 8 criteria)</text>
<text x="520" y="48" font-family="ui-sans-serif, sans-serif" font-size="13" font-weight="700" text-anchor="middle" fill="#111827">Medium</text><text x="520" y="64" font-family="ui-sans-serif, sans-serif" font-size="10" text-anchor="middle" fill="#6b7280">(Tier 2 · 10 criteria)</text>
<text x="640" y="48" font-family="ui-sans-serif, sans-serif" font-size="13" font-weight="700" text-anchor="middle" fill="#111827">Elite</text><text x="640" y="64" font-family="ui-sans-serif, sans-serif" font-size="10" text-anchor="middle" fill="#6b7280">(Tier 3 · 12 criteria)</text>
  <!-- header / body divider -->
  <line x1="0" y1="84" x2="724" y2="84" stroke="#d1d5db" stroke-width="1.5" />
  <!-- row backgrounds + family tabs -->
  <rect x="0" y="84" width="724" height="30" fill="#f9fafb" />
  <rect x="0" y="84" width="6" height="30" fill="#ede9fe" />
  <rect x="0" y="114" width="724" height="30" fill="#ffffff" />
  <rect x="0" y="144" width="724" height="30" fill="#f9fafb" />
  <rect x="0" y="144" width="6" height="30" fill="#dcfce7" />
  <rect x="0" y="174" width="724" height="30" fill="#ffffff" />
  <rect x="0" y="174" width="6" height="30" fill="#fef9c3" />
  <rect x="0" y="204" width="724" height="30" fill="#f9fafb" />
  <rect x="0" y="204" width="6" height="30" fill="#ffedd5" />
  <rect x="0" y="234" width="724" height="30" fill="#ffffff" />
  <rect x="0" y="234" width="6" height="30" fill="#dbeafe" />
  <rect x="0" y="264" width="724" height="30" fill="#f9fafb" />
  <rect x="0" y="294" width="724" height="30" fill="#ffffff" />
  <rect x="0" y="294" width="6" height="30" fill="#dcfce7" />
  <rect x="0" y="324" width="724" height="30" fill="#f9fafb" />
  <rect x="0" y="324" width="6" height="30" fill="#ede9fe" />
  <rect x="0" y="354" width="724" height="30" fill="#ffffff" />
  <rect x="0" y="384" width="724" height="30" fill="#f9fafb" />
  <rect x="0" y="414" width="724" height="30" fill="#ffffff" />
  <!-- family group labels -->
  <text x="9" y="95" font-family="ui-sans-serif, sans-serif" font-size="9" font-weight="700" fill="#6b7280" letter-spacing="0.08em" text-transform="uppercase">PSYCHOLOGICAL</text>
  <text x="9" y="155" font-family="ui-sans-serif, sans-serif" font-size="9" font-weight="700" fill="#6b7280" letter-spacing="0.08em" text-transform="uppercase">PHYSICAL</text>
  <text x="9" y="185" font-family="ui-sans-serif, sans-serif" font-size="9" font-weight="700" fill="#6b7280" letter-spacing="0.08em" text-transform="uppercase">PROFESSIONAL</text>
  <text x="9" y="215" font-family="ui-sans-serif, sans-serif" font-size="9" font-weight="700" fill="#6b7280" letter-spacing="0.08em" text-transform="uppercase">BEHAVIORAL</text>
  <text x="9" y="245" font-family="ui-sans-serif, sans-serif" font-size="9" font-weight="700" fill="#6b7280" letter-spacing="0.08em" text-transform="uppercase">COGNITIVE</text>
  <text x="9" y="305" font-family="ui-sans-serif, sans-serif" font-size="9" font-weight="700" fill="#6b7280" letter-spacing="0.08em" text-transform="uppercase">PHYSICAL</text>
  <text x="9" y="335" font-family="ui-sans-serif, sans-serif" font-size="9" font-weight="700" fill="#6b7280" letter-spacing="0.08em" text-transform="uppercase">PSYCHOLOGICAL</text>
  <!-- column grid -->
  <line x1="340" y1="84" x2="340" y2="444" stroke="#e5e7eb" stroke-width="1" />
<line x1="460" y1="84" x2="460" y2="444" stroke="#e5e7eb" stroke-width="1" />
<line x1="580" y1="84" x2="580" y2="444" stroke="#e5e7eb" stroke-width="1" />
  <!-- rows -->
  <text x="18" y="103" font-family="ui-monospace, monospace" font-size="11.5" fill="#111827">Conscientiousness (Big Five)</text>
<rect x="346" y="88" width="108" height="22" rx="4" fill="#16a34a" /><text x="400" y="104" font-family="ui-sans-serif, sans-serif" font-size="13" font-weight="700" text-anchor="middle" fill="#ffffff">✓</text>
<rect x="466" y="88" width="108" height="22" rx="4" fill="#16a34a" /><text x="520" y="104" font-family="ui-sans-serif, sans-serif" font-size="13" font-weight="700" text-anchor="middle" fill="#ffffff">✓</text>
<rect x="586" y="88" width="108" height="22" rx="4" fill="#16a34a" /><text x="640" y="104" font-family="ui-sans-serif, sans-serif" font-size="13" font-weight="700" text-anchor="middle" fill="#ffffff">✓</text>
<text x="18" y="133" font-family="ui-monospace, monospace" font-size="11.5" fill="#111827">Emotional stability</text>
<rect x="346" y="118" width="108" height="22" rx="4" fill="#16a34a" /><text x="400" y="134" font-family="ui-sans-serif, sans-serif" font-size="13" font-weight="700" text-anchor="middle" fill="#ffffff">✓</text>
<rect x="466" y="118" width="108" height="22" rx="4" fill="#16a34a" /><text x="520" y="134" font-family="ui-sans-serif, sans-serif" font-size="13" font-weight="700" text-anchor="middle" fill="#ffffff">✓</text>
<rect x="586" y="118" width="108" height="22" rx="4" fill="#16a34a" /><text x="640" y="134" font-family="ui-sans-serif, sans-serif" font-size="13" font-weight="700" text-anchor="middle" fill="#ffffff">✓</text>
<text x="18" y="163" font-family="ui-monospace, monospace" font-size="11.5" fill="#111827">VO₂max</text>
<rect x="346" y="148" width="108" height="22" rx="4" fill="#16a34a" /><text x="400" y="164" font-family="ui-sans-serif, sans-serif" font-size="13" font-weight="700" text-anchor="middle" fill="#ffffff">✓</text>
<rect x="466" y="148" width="108" height="22" rx="4" fill="#16a34a" /><text x="520" y="164" font-family="ui-sans-serif, sans-serif" font-size="13" font-weight="700" text-anchor="middle" fill="#ffffff">✓</text>
<rect x="586" y="148" width="108" height="22" rx="4" fill="#16a34a" /><text x="640" y="164" font-family="ui-sans-serif, sans-serif" font-size="13" font-weight="700" text-anchor="middle" fill="#ffffff">✓</text>
<text x="18" y="193" font-family="ui-monospace, monospace" font-size="11.5" fill="#111827">Technical competence</text>
<rect x="346" y="178" width="108" height="22" rx="4" fill="#16a34a" /><text x="400" y="194" font-family="ui-sans-serif, sans-serif" font-size="13" font-weight="700" text-anchor="middle" fill="#ffffff">✓</text>
<rect x="466" y="178" width="108" height="22" rx="4" fill="#16a34a" /><text x="520" y="194" font-family="ui-sans-serif, sans-serif" font-size="13" font-weight="700" text-anchor="middle" fill="#ffffff">✓</text>
<rect x="586" y="178" width="108" height="22" rx="4" fill="#16a34a" /><text x="640" y="194" font-family="ui-sans-serif, sans-serif" font-size="13" font-weight="700" text-anchor="middle" fill="#ffffff">✓</text>
<text x="18" y="223" font-family="ui-monospace, monospace" font-size="11.5" fill="#111827">Teamwork (BBI)</text>
<rect x="346" y="208" width="108" height="22" rx="4" fill="#16a34a" /><text x="400" y="224" font-family="ui-sans-serif, sans-serif" font-size="13" font-weight="700" text-anchor="middle" fill="#ffffff">✓</text>
<rect x="466" y="208" width="108" height="22" rx="4" fill="#16a34a" /><text x="520" y="224" font-family="ui-sans-serif, sans-serif" font-size="13" font-weight="700" text-anchor="middle" fill="#ffffff">✓</text>
<rect x="586" y="208" width="108" height="22" rx="4" fill="#16a34a" /><text x="640" y="224" font-family="ui-sans-serif, sans-serif" font-size="13" font-weight="700" text-anchor="middle" fill="#ffffff">✓</text>
<text x="18" y="253" font-family="ui-monospace, monospace" font-size="11.5" fill="#111827">Cognitive throughput (NASA Cognition Battery)</text>
<rect x="346" y="238" width="108" height="22" rx="4" fill="#d1d5db" /><text x="400" y="254" font-family="ui-sans-serif, sans-serif" font-size="13" font-weight="700" text-anchor="middle" fill="#6b7280">–</text>
<rect x="466" y="238" width="108" height="22" rx="4" fill="#16a34a" /><text x="520" y="254" font-family="ui-sans-serif, sans-serif" font-size="13" font-weight="700" text-anchor="middle" fill="#ffffff">✓</text>
<rect x="586" y="238" width="108" height="22" rx="4" fill="#16a34a" /><text x="640" y="254" font-family="ui-sans-serif, sans-serif" font-size="13" font-weight="700" text-anchor="middle" fill="#ffffff">✓</text>
<text x="18" y="283" font-family="ui-monospace, monospace" font-size="11.5" fill="#111827">Vigilance — PVT-B reaction time</text>
<rect x="346" y="268" width="108" height="22" rx="4" fill="#16a34a" /><text x="400" y="284" font-family="ui-sans-serif, sans-serif" font-size="13" font-weight="700" text-anchor="middle" fill="#ffffff">✓</text>
<rect x="466" y="268" width="108" height="22" rx="4" fill="#16a34a" /><text x="520" y="284" font-family="ui-sans-serif, sans-serif" font-size="13" font-weight="700" text-anchor="middle" fill="#ffffff">✓</text>
<rect x="586" y="268" width="108" height="22" rx="4" fill="#16a34a" /><text x="640" y="284" font-family="ui-sans-serif, sans-serif" font-size="13" font-weight="700" text-anchor="middle" fill="#ffffff">✓</text>
<text x="18" y="313" font-family="ui-monospace, monospace" font-size="11.5" fill="#111827">Sensorimotor balance (SOT-5 Equilibrium Score)</text>
<rect x="346" y="298" width="108" height="22" rx="4" fill="#d1d5db" /><text x="400" y="314" font-family="ui-sans-serif, sans-serif" font-size="13" font-weight="700" text-anchor="middle" fill="#6b7280">–</text>
<rect x="466" y="298" width="108" height="22" rx="4" fill="#d1d5db" /><text x="520" y="314" font-family="ui-sans-serif, sans-serif" font-size="13" font-weight="700" text-anchor="middle" fill="#6b7280">–</text>
<rect x="586" y="298" width="108" height="22" rx="4" fill="#16a34a" /><text x="640" y="314" font-family="ui-sans-serif, sans-serif" font-size="13" font-weight="700" text-anchor="middle" fill="#ffffff">✓</text>
<text x="18" y="343" font-family="ui-monospace, monospace" font-size="11.5" fill="#111827">Resilience (CD-RISC-25)</text>
<rect x="346" y="328" width="108" height="22" rx="4" fill="#16a34a" /><text x="400" y="344" font-family="ui-sans-serif, sans-serif" font-size="13" font-weight="700" text-anchor="middle" fill="#ffffff">✓</text>
<rect x="466" y="328" width="108" height="22" rx="4" fill="#16a34a" /><text x="520" y="344" font-family="ui-sans-serif, sans-serif" font-size="13" font-weight="700" text-anchor="middle" fill="#ffffff">✓</text>
<rect x="586" y="328" width="108" height="22" rx="4" fill="#16a34a" /><text x="640" y="344" font-family="ui-sans-serif, sans-serif" font-size="13" font-weight="700" text-anchor="middle" fill="#ffffff">✓</text>
<text x="18" y="373" font-family="ui-monospace, monospace" font-size="11.5" fill="#111827">Emotional intelligence (MSCEIT EIQ)</text>
<rect x="346" y="358" width="108" height="22" rx="4" fill="#d1d5db" /><text x="400" y="374" font-family="ui-sans-serif, sans-serif" font-size="13" font-weight="700" text-anchor="middle" fill="#6b7280">–</text>
<rect x="466" y="358" width="108" height="22" rx="4" fill="#16a34a" /><text x="520" y="374" font-family="ui-sans-serif, sans-serif" font-size="13" font-weight="700" text-anchor="middle" fill="#ffffff">✓</text>
<rect x="586" y="358" width="108" height="22" rx="4" fill="#16a34a" /><text x="640" y="374" font-family="ui-sans-serif, sans-serif" font-size="13" font-weight="700" text-anchor="middle" fill="#ffffff">✓</text>
<text x="18" y="403" font-family="ui-monospace, monospace" font-size="11.5" fill="#111827">Psychiatric screen — MMPI-2-RF EID</text>
<rect x="346" y="388" width="108" height="22" rx="4" fill="#d1d5db" /><text x="400" y="404" font-family="ui-sans-serif, sans-serif" font-size="13" font-weight="700" text-anchor="middle" fill="#6b7280">–</text>
<rect x="466" y="388" width="108" height="22" rx="4" fill="#d1d5db" /><text x="520" y="404" font-family="ui-sans-serif, sans-serif" font-size="13" font-weight="700" text-anchor="middle" fill="#6b7280">–</text>
<rect x="586" y="388" width="108" height="22" rx="4" fill="#16a34a" /><text x="640" y="404" font-family="ui-sans-serif, sans-serif" font-size="13" font-weight="700" text-anchor="middle" fill="#ffffff">✓</text>
<text x="18" y="433" font-family="ui-monospace, monospace" font-size="11.5" fill="#111827">Depression-state baseline (BDI-II)</text>
<rect x="346" y="418" width="108" height="22" rx="4" fill="#16a34a" /><text x="400" y="434" font-family="ui-sans-serif, sans-serif" font-size="13" font-weight="700" text-anchor="middle" fill="#ffffff">✓</text>
<rect x="466" y="418" width="108" height="22" rx="4" fill="#16a34a" /><text x="520" y="434" font-family="ui-sans-serif, sans-serif" font-size="13" font-weight="700" text-anchor="middle" fill="#ffffff">✓</text>
<rect x="586" y="418" width="108" height="22" rx="4" fill="#16a34a" /><text x="640" y="434" font-family="ui-sans-serif, sans-serif" font-size="13" font-weight="700" text-anchor="middle" fill="#ffffff">✓</text>
  <!-- bottom rule -->
  <line x1="0" y1="444" x2="724" y2="444" stroke="#d1d5db" stroke-width="1.5" />
  <!-- legend -->
  <rect x="350" y="454" width="22" height="20" rx="4" fill="#16a34a" /><text x="361" y="468" font-family="ui-sans-serif, sans-serif" font-size="12" font-weight="700" text-anchor="middle" fill="#ffffff">✓</text><text x="378" y="468" font-family="ui-sans-serif, sans-serif" font-size="11" fill="#374151">Active at this tier</text>
<rect x="540" y="454" width="22" height="20" rx="4" fill="#d1d5db" /><text x="551" y="468" font-family="ui-sans-serif, sans-serif" font-size="12" font-weight="700" text-anchor="middle" fill="#6b7280">–</text><text x="568" y="468" font-family="ui-sans-serif, sans-serif" font-size="11" fill="#374151">Not active at this tier</text>
  <!-- weight note -->
  <text x="344" y="468" font-family="ui-sans-serif, sans-serif" font-size="10" fill="#6b7280" text-anchor="end">Dirichlet α = 1/K per active criterion</text>
</svg>