<svg xmlns="http://www.w3.org/2000/svg" width="1200" height="620" viewBox="0 0 1200 620">
  <rect width="100%" height="100%" fill="white"/>
  <!-- title -->
  <text x="600" y="28" text-anchor="middle" font-family="ui-sans-serif,sans-serif" font-size="15" font-weight="600" fill="#111827">Stage B convergence: trailing-window σ(χ) vs cumulative trials</text>
  <!-- axes -->
  <line x1="72" y1="52" x2="72" y2="560" stroke="#374151" stroke-width="1.5"/>
  <line x1="72" y1="560" x2="1160" y2="560" stroke="#374151" stroke-width="1.5"/>
  <!-- grid + y-ticks -->
  <line x1="67" y1="560.0" x2="72" y2="560.0" stroke="#9ca3af" stroke-width="1"/><text x="64" y="564" text-anchor="end" font-family="ui-monospace,monospace" font-size="10" fill="#6b7280">0.0000</text><line x1="72" y1="560.0" x2="1160" y2="560.0" stroke="#f3f4f6" stroke-width="1"/>
<line x1="67" y1="458.4" x2="72" y2="458.4" stroke="#9ca3af" stroke-width="1"/><text x="64" y="462" text-anchor="end" font-family="ui-monospace,monospace" font-size="10" fill="#6b7280">0.0092</text><line x1="72" y1="458.4" x2="1160" y2="458.4" stroke="#f3f4f6" stroke-width="1"/>
<line x1="67" y1="356.8" x2="72" y2="356.8" stroke="#9ca3af" stroke-width="1"/><text x="64" y="361" text-anchor="end" font-family="ui-monospace,monospace" font-size="10" fill="#6b7280">0.0184</text><line x1="72" y1="356.8" x2="1160" y2="356.8" stroke="#f3f4f6" stroke-width="1"/>
<line x1="67" y1="255.2" x2="72" y2="255.2" stroke="#9ca3af" stroke-width="1"/><text x="64" y="259" text-anchor="end" font-family="ui-monospace,monospace" font-size="10" fill="#6b7280">0.0276</text><line x1="72" y1="255.2" x2="1160" y2="255.2" stroke="#f3f4f6" stroke-width="1"/>
<line x1="67" y1="153.6" x2="72" y2="153.6" stroke="#9ca3af" stroke-width="1"/><text x="64" y="158" text-anchor="end" font-family="ui-monospace,monospace" font-size="10" fill="#6b7280">0.0368</text><line x1="72" y1="153.6" x2="1160" y2="153.6" stroke="#f3f4f6" stroke-width="1"/>
<line x1="67" y1="52.0" x2="72" y2="52.0" stroke="#9ca3af" stroke-width="1"/><text x="64" y="56" text-anchor="end" font-family="ui-monospace,monospace" font-size="10" fill="#6b7280">0.0460</text><line x1="72" y1="52.0" x2="1160" y2="52.0" stroke="#f3f4f6" stroke-width="1"/>
  <!-- x-ticks -->
  <line x1="170.9" y1="560.0" x2="170.9" y2="565.0" stroke="#9ca3af" stroke-width="1"/><text x="170.9" y="576" text-anchor="middle" font-family="ui-monospace,monospace" font-size="10" fill="#6b7280">10k</text>
<line x1="280.8" y1="560.0" x2="280.8" y2="565.0" stroke="#9ca3af" stroke-width="1"/><text x="280.8" y="576" text-anchor="middle" font-family="ui-monospace,monospace" font-size="10" fill="#6b7280">20k</text>
<line x1="390.7" y1="560.0" x2="390.7" y2="565.0" stroke="#9ca3af" stroke-width="1"/><text x="390.7" y="576" text-anchor="middle" font-family="ui-monospace,monospace" font-size="10" fill="#6b7280">30k</text>
<line x1="500.6" y1="560.0" x2="500.6" y2="565.0" stroke="#9ca3af" stroke-width="1"/><text x="500.6" y="576" text-anchor="middle" font-family="ui-monospace,monospace" font-size="10" fill="#6b7280">40k</text>
<line x1="610.5" y1="560.0" x2="610.5" y2="565.0" stroke="#9ca3af" stroke-width="1"/><text x="610.5" y="576" text-anchor="middle" font-family="ui-monospace,monospace" font-size="10" fill="#6b7280">50k</text>
<line x1="720.4" y1="560.0" x2="720.4" y2="565.0" stroke="#9ca3af" stroke-width="1"/><text x="720.4" y="576" text-anchor="middle" font-family="ui-monospace,monospace" font-size="10" fill="#6b7280">60k</text>
<line x1="830.3" y1="560.0" x2="830.3" y2="565.0" stroke="#9ca3af" stroke-width="1"/><text x="830.3" y="576" text-anchor="middle" font-family="ui-monospace,monospace" font-size="10" fill="#6b7280">70k</text>
<line x1="940.2" y1="560.0" x2="940.2" y2="565.0" stroke="#9ca3af" stroke-width="1"/><text x="940.2" y="576" text-anchor="middle" font-family="ui-monospace,monospace" font-size="10" fill="#6b7280">80k</text>
<line x1="1050.1" y1="560.0" x2="1050.1" y2="565.0" stroke="#9ca3af" stroke-width="1"/><text x="1050.1" y="576" text-anchor="middle" font-family="ui-monospace,monospace" font-size="10" fill="#6b7280">90k</text>
<line x1="1160.0" y1="560.0" x2="1160.0" y2="565.0" stroke="#9ca3af" stroke-width="1"/><text x="1160.0" y="576" text-anchor="middle" font-family="ui-monospace,monospace" font-size="10" fill="#6b7280">100k</text>
  <!-- final-sigma stabilisation line (dashed) -->
  <line x1="72" y1="142.4" x2="1160" y2="142.4" stroke="#dc2626" stroke-width="1.5" stroke-dasharray="6 4"/>
  <!-- convergence annotation -->
  <rect x="970" y="114" width="190" height="20" rx="3" fill="#fef2f2" stroke="#fca5a5" stroke-width="1"/>
  <text x="1065" y="129" text-anchor="middle" font-family="ui-monospace,monospace" font-size="10.5" fill="#dc2626">|Δσ/σ| = 2.63 % &lt; 5 % (M18/A22)</text>
  <!-- main line -->
  <polyline fill="none" stroke="#2563eb" stroke-width="2.5" stroke-linejoin="round" stroke-linecap="round" points="72.0,164.7 83.0,140.8 94.0,164.2 105.0,165.7 116.0,143.9 126.9,155.4 137.9,135.2 148.9,154.8 159.9,138.1 170.9,159.1 181.9,161.1 192.9,142.8 203.9,139.1 214.9,145.2 225.9,153.8 236.8,148.3 247.8,153.0 258.8,147.9 269.8,143.9 280.8,147.1 291.8,147.1 302.8,150.1 313.8,144.3 324.8,135.4 335.8,149.3 346.7,148.4 357.7,136.2 368.7,146.6 379.7,122.7 390.7,144.1 401.7,139.1 412.7,144.4 423.7,138.5 434.7,140.0 445.7,150.2 456.6,137.4 467.6,140.1 478.6,146.8 489.6,152.2 500.6,161.4 511.6,151.2 522.6,136.5 533.6,136.0 544.6,130.7 555.6,157.7 566.5,136.2 577.5,152.8 588.5,137.2 599.5,150.2 610.5,149.6 621.5,151.5 632.5,161.8 643.5,145.6 654.5,137.0 665.5,153.5 676.4,146.4 687.4,144.3 698.4,158.7 709.4,149.6 720.4,147.0 731.4,146.8 742.4,142.3 753.4,140.8 764.4,157.8 775.4,140.7 786.3,154.3 797.3,150.2 808.3,124.9 819.3,142.7 830.3,122.2 841.3,159.3 852.3,143.9 863.3,144.8 874.3,141.3 885.3,146.6 896.2,145.9 907.2,134.2 918.2,164.5 929.2,146.2 940.2,121.4 951.2,157.0 962.2,158.1 973.2,151.3 984.2,148.8 995.2,127.8 1006.1,137.8 1017.1,150.1 1028.1,139.1 1039.1,137.3 1050.1,146.8 1061.1,149.6 1072.1,151.0 1083.1,141.3 1094.1,162.5 1105.1,118.3 1116.0,119.0 1127.0,159.1 1138.0,156.8 1149.0,153.2 1160.0,142.4"/>
  <!-- axis labels -->
  <text x="600" y="610" text-anchor="middle" font-family="ui-sans-serif,sans-serif" font-size="11" fill="#6b7280">Cumulative trials</text>
  <text x="14" y="310" text-anchor="middle" font-family="ui-sans-serif,sans-serif" font-size="11" fill="#6b7280" transform="rotate(-90 14 310)">Trailing-window σ(χ) per 1 000 trials</text>
  <!-- legend box -->
  <rect x="88" y="64" width="230" height="40" rx="4" fill="#f9fafb" stroke="#e5e7eb" stroke-width="1"/>
  <line x1="100" y1="80" x2="124" y2="80" stroke="#2563eb" stroke-width="2.5"/>
  <text x="130" y="84" font-family="ui-sans-serif,sans-serif" font-size="11" fill="#374151">σ(χ) per 1 000-trial window</text>
  <line x1="100" y1="96" x2="124" y2="96" stroke="#dc2626" stroke-width="1.5" stroke-dasharray="6 4"/>
  <text x="130" y="100" font-family="ui-sans-serif,sans-serif" font-size="11" fill="#374151">Final σ (stabilised)</text>
  <!-- subtitle: mission / seed -->
  <text x="1160" y="608" text-anchor="end" font-family="ui-monospace,monospace" font-size="10" fill="#9ca3af">Mission: HI-SEAS 45d · Seed 0xc0ffee · T=100,000</text>
</svg>